<mxfile host="app.diagrams.net" agent="Mozilla/5.0 (Windows NT 10.0; Win64; x64) AppleWebKit/537.36 (KHTML, like Gecko) Chrome/130.0.0.0 Safari/537.36" version="24.7.13">
  <diagram name="Page-1" id="mTg6XD4lZaziWeDGedmx">
    <mxGraphModel dx="913" dy="461" grid="1" gridSize="10" guides="1" tooltips="1" connect="1" arrows="1" fold="1" page="1" pageScale="1" pageWidth="1600" pageHeight="1200" math="0" shadow="0">
      <root>
        <mxCell id="0" />
        <mxCell id="1" parent="0" />
        <mxCell id="OEuYa3dv73G8CfbDtzN9-2" style="edgeStyle=orthogonalEdgeStyle;rounded=0;orthogonalLoop=1;jettySize=auto;html=1;entryX=0.5;entryY=0;entryDx=0;entryDy=0;" edge="1" parent="1" source="5jhMgcD0juR2SkIwLDy6-1" target="OEuYa3dv73G8CfbDtzN9-1">
          <mxGeometry relative="1" as="geometry" />
        </mxCell>
        <mxCell id="5jhMgcD0juR2SkIwLDy6-1" value="&lt;font style=&quot;font-size: 14px;&quot; face=&quot;Courier New&quot;&gt;&lt;b style=&quot;&quot;&gt;CoffeeOut &amp;lt;- 0&lt;/b&gt;&lt;/font&gt;&lt;div&gt;&lt;font style=&quot;font-size: 14px;&quot; face=&quot;Courier New&quot;&gt;&lt;b&gt;TeaOut &amp;lt;- 0&lt;/b&gt;&lt;/font&gt;&lt;/div&gt;&lt;div&gt;&lt;font style=&quot;font-size: 14px;&quot; face=&quot;Courier New&quot;&gt;&lt;b&gt;Change5 &amp;lt;- 0&lt;/b&gt;&lt;/font&gt;&lt;/div&gt;&lt;div&gt;&lt;font style=&quot;font-size: 14px;&quot; face=&quot;Courier New&quot;&gt;&lt;b&gt;Change10 &amp;lt;- 0&lt;/b&gt;&lt;/font&gt;&lt;/div&gt;&lt;div&gt;&lt;font style=&quot;font-size: 14px;&quot; face=&quot;Courier New&quot;&gt;&lt;b&gt;Change20 &amp;lt;- 0&lt;/b&gt;&lt;/font&gt;&lt;/div&gt;&lt;div&gt;&lt;font style=&quot;font-size: 14px;&quot; face=&quot;Courier New&quot;&gt;&lt;b&gt;Balance &amp;lt;- 0&lt;/b&gt;&lt;/font&gt;&lt;/div&gt;" style="rounded=1;whiteSpace=wrap;html=1;" vertex="1" parent="1">
          <mxGeometry x="120" y="60" width="150" height="120" as="geometry" />
        </mxCell>
        <mxCell id="OEuYa3dv73G8CfbDtzN9-8" style="edgeStyle=orthogonalEdgeStyle;rounded=0;orthogonalLoop=1;jettySize=auto;html=1;entryX=0.5;entryY=0;entryDx=0;entryDy=0;" edge="1" parent="1" source="OEuYa3dv73G8CfbDtzN9-1" target="OEuYa3dv73G8CfbDtzN9-7">
          <mxGeometry relative="1" as="geometry" />
        </mxCell>
        <mxCell id="OEuYa3dv73G8CfbDtzN9-1" value="&lt;font face=&quot;Courier New&quot;&gt;&lt;span style=&quot;font-size: 14px;&quot;&gt;&lt;b&gt;Coffee &amp;lt;- 0&lt;/b&gt;&lt;/span&gt;&lt;/font&gt;&lt;div&gt;&lt;font face=&quot;Courier New&quot;&gt;&lt;span style=&quot;font-size: 14px;&quot;&gt;&lt;b&gt;TeaOut &amp;lt;- 0&lt;/b&gt;&lt;/span&gt;&lt;/font&gt;&lt;/div&gt;" style="rounded=1;whiteSpace=wrap;html=1;" vertex="1" parent="1">
          <mxGeometry x="120" y="220" width="150" height="60" as="geometry" />
        </mxCell>
        <mxCell id="OEuYa3dv73G8CfbDtzN9-3" value="&lt;font style=&quot;font-size: 14px;&quot; face=&quot;Courier New&quot;&gt;&lt;b&gt;0000&lt;/b&gt;&lt;/font&gt;" style="text;html=1;align=center;verticalAlign=middle;whiteSpace=wrap;rounded=0;" vertex="1" parent="1">
          <mxGeometry x="240" y="40" width="30" height="20" as="geometry" />
        </mxCell>
        <mxCell id="OEuYa3dv73G8CfbDtzN9-4" value="&lt;font style=&quot;font-size: 14px;&quot; face=&quot;Courier New&quot;&gt;&lt;b&gt;Initial&lt;/b&gt;&lt;/font&gt;" style="text;html=1;align=center;verticalAlign=middle;whiteSpace=wrap;rounded=0;" vertex="1" parent="1">
          <mxGeometry x="120" y="40" width="62.5" height="20" as="geometry" />
        </mxCell>
        <mxCell id="OEuYa3dv73G8CfbDtzN9-5" value="&lt;font style=&quot;font-size: 14px;&quot; face=&quot;Courier New&quot;&gt;&lt;b&gt;Idle&lt;/b&gt;&lt;/font&gt;" style="text;html=1;align=center;verticalAlign=middle;whiteSpace=wrap;rounded=0;" vertex="1" parent="1">
          <mxGeometry x="120" y="200" width="40" height="20" as="geometry" />
        </mxCell>
        <mxCell id="OEuYa3dv73G8CfbDtzN9-6" value="&lt;font style=&quot;font-size: 14px;&quot; face=&quot;Courier New&quot;&gt;&lt;b&gt;0001&lt;/b&gt;&lt;/font&gt;" style="text;html=1;align=center;verticalAlign=middle;whiteSpace=wrap;rounded=0;" vertex="1" parent="1">
          <mxGeometry x="230" y="200" width="50" height="20" as="geometry" />
        </mxCell>
        <mxCell id="OEuYa3dv73G8CfbDtzN9-36" style="edgeStyle=orthogonalEdgeStyle;rounded=0;orthogonalLoop=1;jettySize=auto;html=1;entryX=0.5;entryY=0;entryDx=0;entryDy=0;" edge="1" parent="1" source="OEuYa3dv73G8CfbDtzN9-7" target="OEuYa3dv73G8CfbDtzN9-9">
          <mxGeometry relative="1" as="geometry" />
        </mxCell>
        <mxCell id="OEuYa3dv73G8CfbDtzN9-7" value="Reset ?" style="shape=hexagon;perimeter=hexagonPerimeter2;whiteSpace=wrap;html=1;fixedSize=1;fontFamily=Courier New;fontStyle=1;fontSize=14;" vertex="1" parent="1">
          <mxGeometry x="145" y="330" width="100" height="40" as="geometry" />
        </mxCell>
        <mxCell id="OEuYa3dv73G8CfbDtzN9-22" style="edgeStyle=orthogonalEdgeStyle;rounded=0;orthogonalLoop=1;jettySize=auto;html=1;entryX=0;entryY=0.5;entryDx=0;entryDy=0;" edge="1" parent="1" source="OEuYa3dv73G8CfbDtzN9-9" target="OEuYa3dv73G8CfbDtzN9-19">
          <mxGeometry relative="1" as="geometry" />
        </mxCell>
        <mxCell id="OEuYa3dv73G8CfbDtzN9-9" value="P5 ?" style="shape=hexagon;perimeter=hexagonPerimeter2;whiteSpace=wrap;html=1;fixedSize=1;fontFamily=Courier New;fontStyle=1;fontSize=14;" vertex="1" parent="1">
          <mxGeometry x="145" y="400" width="100" height="40" as="geometry" />
        </mxCell>
        <mxCell id="OEuYa3dv73G8CfbDtzN9-29" style="edgeStyle=orthogonalEdgeStyle;rounded=0;orthogonalLoop=1;jettySize=auto;html=1;exitX=1;exitY=0.5;exitDx=0;exitDy=0;entryX=0;entryY=0.5;entryDx=0;entryDy=0;" edge="1" parent="1" source="OEuYa3dv73G8CfbDtzN9-11" target="OEuYa3dv73G8CfbDtzN9-28">
          <mxGeometry relative="1" as="geometry" />
        </mxCell>
        <mxCell id="OEuYa3dv73G8CfbDtzN9-11" value="P10 ?" style="shape=hexagon;perimeter=hexagonPerimeter2;whiteSpace=wrap;html=1;fixedSize=1;fontFamily=Courier New;fontStyle=1;fontSize=14;" vertex="1" parent="1">
          <mxGeometry x="145" y="490" width="100" height="40" as="geometry" />
        </mxCell>
        <mxCell id="OEuYa3dv73G8CfbDtzN9-18" value="&lt;font style=&quot;font-size: 14px;&quot; face=&quot;Courier New&quot;&gt;&lt;b&gt;0&lt;/b&gt;&lt;/font&gt;" style="text;html=1;align=center;verticalAlign=middle;whiteSpace=wrap;rounded=0;" vertex="1" parent="1">
          <mxGeometry x="200" y="370" width="20" height="20" as="geometry" />
        </mxCell>
        <mxCell id="OEuYa3dv73G8CfbDtzN9-24" style="edgeStyle=orthogonalEdgeStyle;rounded=0;orthogonalLoop=1;jettySize=auto;html=1;entryX=0.5;entryY=0;entryDx=0;entryDy=0;exitX=0.5;exitY=1;exitDx=0;exitDy=0;" edge="1" parent="1" source="OEuYa3dv73G8CfbDtzN9-19" target="OEuYa3dv73G8CfbDtzN9-11">
          <mxGeometry relative="1" as="geometry">
            <Array as="points">
              <mxPoint x="355" y="470" />
              <mxPoint x="195" y="470" />
            </Array>
          </mxGeometry>
        </mxCell>
        <mxCell id="OEuYa3dv73G8CfbDtzN9-67" style="edgeStyle=orthogonalEdgeStyle;rounded=0;orthogonalLoop=1;jettySize=auto;html=1;exitX=1;exitY=0.5;exitDx=0;exitDy=0;entryX=0;entryY=0.5;entryDx=0;entryDy=0;" edge="1" parent="1" source="OEuYa3dv73G8CfbDtzN9-19" target="OEuYa3dv73G8CfbDtzN9-66">
          <mxGeometry relative="1" as="geometry" />
        </mxCell>
        <mxCell id="OEuYa3dv73G8CfbDtzN9-19" value="Balance &amp;lt; 46" style="shape=hexagon;perimeter=hexagonPerimeter2;whiteSpace=wrap;html=1;fixedSize=1;fontFamily=Courier New;fontStyle=1;fontSize=14;" vertex="1" parent="1">
          <mxGeometry x="290" y="400" width="130" height="40" as="geometry" />
        </mxCell>
        <mxCell id="OEuYa3dv73G8CfbDtzN9-20" value="&lt;font style=&quot;font-size: 14px;&quot; face=&quot;Courier New&quot;&gt;&lt;b&gt;1&lt;/b&gt;&lt;/font&gt;" style="text;html=1;align=center;verticalAlign=middle;whiteSpace=wrap;rounded=0;" vertex="1" parent="1">
          <mxGeometry x="260" y="400" width="20" height="20" as="geometry" />
        </mxCell>
        <mxCell id="OEuYa3dv73G8CfbDtzN9-21" value="&lt;font style=&quot;font-size: 14px;&quot; face=&quot;Courier New&quot;&gt;&lt;b&gt;0&lt;/b&gt;&lt;/font&gt;" style="text;html=1;align=center;verticalAlign=middle;whiteSpace=wrap;rounded=0;" vertex="1" parent="1">
          <mxGeometry x="360" y="440" width="20" height="20" as="geometry" />
        </mxCell>
        <mxCell id="OEuYa3dv73G8CfbDtzN9-25" value="&lt;font style=&quot;font-size: 14px;&quot; face=&quot;Courier New&quot;&gt;&lt;b&gt;0&lt;/b&gt;&lt;/font&gt;" style="text;html=1;align=center;verticalAlign=middle;whiteSpace=wrap;rounded=0;" vertex="1" parent="1">
          <mxGeometry x="185" y="530" width="20" height="20" as="geometry" />
        </mxCell>
        <mxCell id="OEuYa3dv73G8CfbDtzN9-26" value="&lt;font style=&quot;font-size: 14px;&quot; face=&quot;Courier New&quot;&gt;&lt;b&gt;0&lt;/b&gt;&lt;/font&gt;" style="text;html=1;align=center;verticalAlign=middle;whiteSpace=wrap;rounded=0;" vertex="1" parent="1">
          <mxGeometry x="185" y="440" width="20" height="20" as="geometry" />
        </mxCell>
        <mxCell id="OEuYa3dv73G8CfbDtzN9-82" style="edgeStyle=orthogonalEdgeStyle;rounded=0;orthogonalLoop=1;jettySize=auto;html=1;exitX=1;exitY=0.5;exitDx=0;exitDy=0;entryX=0;entryY=0.5;entryDx=0;entryDy=0;" edge="1" parent="1" source="OEuYa3dv73G8CfbDtzN9-28" target="OEuYa3dv73G8CfbDtzN9-69">
          <mxGeometry relative="1" as="geometry" />
        </mxCell>
        <mxCell id="OEuYa3dv73G8CfbDtzN9-28" value="Balance &amp;lt; 41" style="shape=hexagon;perimeter=hexagonPerimeter2;whiteSpace=wrap;html=1;fixedSize=1;fontFamily=Courier New;fontStyle=1;fontSize=14;" vertex="1" parent="1">
          <mxGeometry x="290" y="490" width="130" height="40" as="geometry" />
        </mxCell>
        <mxCell id="OEuYa3dv73G8CfbDtzN9-30" value="&lt;font style=&quot;font-size: 14px;&quot; face=&quot;Courier New&quot;&gt;&lt;b&gt;1&lt;/b&gt;&lt;/font&gt;" style="text;html=1;align=center;verticalAlign=middle;whiteSpace=wrap;rounded=0;" vertex="1" parent="1">
          <mxGeometry x="260" y="490" width="20" height="20" as="geometry" />
        </mxCell>
        <mxCell id="OEuYa3dv73G8CfbDtzN9-45" style="edgeStyle=orthogonalEdgeStyle;rounded=0;orthogonalLoop=1;jettySize=auto;html=1;exitX=1;exitY=0.5;exitDx=0;exitDy=0;entryX=0;entryY=0.5;entryDx=0;entryDy=0;" edge="1" parent="1" source="OEuYa3dv73G8CfbDtzN9-37" target="OEuYa3dv73G8CfbDtzN9-42">
          <mxGeometry relative="1" as="geometry" />
        </mxCell>
        <mxCell id="OEuYa3dv73G8CfbDtzN9-37" value="P20 ?" style="shape=hexagon;perimeter=hexagonPerimeter2;whiteSpace=wrap;html=1;fixedSize=1;fontFamily=Courier New;fontStyle=1;fontSize=14;" vertex="1" parent="1">
          <mxGeometry x="145" y="580" width="100" height="40" as="geometry" />
        </mxCell>
        <mxCell id="OEuYa3dv73G8CfbDtzN9-38" style="edgeStyle=orthogonalEdgeStyle;rounded=0;orthogonalLoop=1;jettySize=auto;html=1;entryX=0.5;entryY=0;entryDx=0;entryDy=0;exitX=0.5;exitY=1;exitDx=0;exitDy=0;" edge="1" parent="1" source="OEuYa3dv73G8CfbDtzN9-28" target="OEuYa3dv73G8CfbDtzN9-37">
          <mxGeometry relative="1" as="geometry">
            <Array as="points">
              <mxPoint x="355" y="560" />
              <mxPoint x="195" y="560" />
            </Array>
            <mxPoint x="340" y="540" as="sourcePoint" />
          </mxGeometry>
        </mxCell>
        <mxCell id="OEuYa3dv73G8CfbDtzN9-40" value="&lt;font style=&quot;font-size: 14px;&quot; face=&quot;Courier New&quot;&gt;&lt;b&gt;0&lt;/b&gt;&lt;/font&gt;" style="text;html=1;align=center;verticalAlign=middle;whiteSpace=wrap;rounded=0;" vertex="1" parent="1">
          <mxGeometry x="360" y="530" width="20" height="20" as="geometry" />
        </mxCell>
        <mxCell id="OEuYa3dv73G8CfbDtzN9-41" value="&lt;font style=&quot;font-size: 14px;&quot; face=&quot;Courier New&quot;&gt;&lt;b&gt;0&lt;/b&gt;&lt;/font&gt;" style="text;html=1;align=center;verticalAlign=middle;whiteSpace=wrap;rounded=0;" vertex="1" parent="1">
          <mxGeometry x="185" y="620" width="20" height="20" as="geometry" />
        </mxCell>
        <mxCell id="OEuYa3dv73G8CfbDtzN9-47" style="edgeStyle=orthogonalEdgeStyle;rounded=0;orthogonalLoop=1;jettySize=auto;html=1;entryX=0.5;entryY=0;entryDx=0;entryDy=0;exitX=0.5;exitY=1;exitDx=0;exitDy=0;" edge="1" parent="1" source="OEuYa3dv73G8CfbDtzN9-42" target="OEuYa3dv73G8CfbDtzN9-46">
          <mxGeometry relative="1" as="geometry">
            <mxPoint x="340" y="640" as="sourcePoint" />
            <Array as="points">
              <mxPoint x="355" y="650" />
              <mxPoint x="195" y="650" />
            </Array>
          </mxGeometry>
        </mxCell>
        <mxCell id="OEuYa3dv73G8CfbDtzN9-83" style="edgeStyle=orthogonalEdgeStyle;rounded=0;orthogonalLoop=1;jettySize=auto;html=1;exitX=1;exitY=0.5;exitDx=0;exitDy=0;entryX=0;entryY=0.5;entryDx=0;entryDy=0;" edge="1" parent="1" source="OEuYa3dv73G8CfbDtzN9-42" target="OEuYa3dv73G8CfbDtzN9-70">
          <mxGeometry relative="1" as="geometry" />
        </mxCell>
        <mxCell id="OEuYa3dv73G8CfbDtzN9-42" value="Balance &amp;lt; 31" style="shape=hexagon;perimeter=hexagonPerimeter2;whiteSpace=wrap;html=1;fixedSize=1;fontFamily=Courier New;fontStyle=1;fontSize=14;" vertex="1" parent="1">
          <mxGeometry x="290" y="580" width="130" height="40" as="geometry" />
        </mxCell>
        <mxCell id="OEuYa3dv73G8CfbDtzN9-43" value="&lt;font style=&quot;font-size: 14px;&quot; face=&quot;Courier New&quot;&gt;&lt;b&gt;1&lt;/b&gt;&lt;/font&gt;" style="text;html=1;align=center;verticalAlign=middle;whiteSpace=wrap;rounded=0;" vertex="1" parent="1">
          <mxGeometry x="260" y="580" width="20" height="20" as="geometry" />
        </mxCell>
        <mxCell id="OEuYa3dv73G8CfbDtzN9-50" style="edgeStyle=orthogonalEdgeStyle;rounded=0;orthogonalLoop=1;jettySize=auto;html=1;exitX=1;exitY=0.5;exitDx=0;exitDy=0;entryX=0;entryY=0.5;entryDx=0;entryDy=0;" edge="1" parent="1" source="OEuYa3dv73G8CfbDtzN9-46" target="OEuYa3dv73G8CfbDtzN9-49">
          <mxGeometry relative="1" as="geometry" />
        </mxCell>
        <mxCell id="OEuYa3dv73G8CfbDtzN9-46" value="PCoffee ?" style="shape=hexagon;perimeter=hexagonPerimeter2;whiteSpace=wrap;html=1;fixedSize=1;fontFamily=Courier New;fontStyle=1;fontSize=14;" vertex="1" parent="1">
          <mxGeometry x="145" y="670" width="100" height="40" as="geometry" />
        </mxCell>
        <mxCell id="OEuYa3dv73G8CfbDtzN9-48" value="&lt;font style=&quot;font-size: 14px;&quot; face=&quot;Courier New&quot;&gt;&lt;b&gt;0&lt;/b&gt;&lt;/font&gt;" style="text;html=1;align=center;verticalAlign=middle;whiteSpace=wrap;rounded=0;" vertex="1" parent="1">
          <mxGeometry x="360" y="620" width="20" height="20" as="geometry" />
        </mxCell>
        <mxCell id="OEuYa3dv73G8CfbDtzN9-65" style="edgeStyle=orthogonalEdgeStyle;rounded=0;orthogonalLoop=1;jettySize=auto;html=1;entryX=0.5;entryY=0;entryDx=0;entryDy=0;" edge="1" parent="1" source="OEuYa3dv73G8CfbDtzN9-49" target="OEuYa3dv73G8CfbDtzN9-51">
          <mxGeometry relative="1" as="geometry">
            <Array as="points">
              <mxPoint x="355" y="740" />
              <mxPoint x="195" y="740" />
            </Array>
          </mxGeometry>
        </mxCell>
        <mxCell id="OEuYa3dv73G8CfbDtzN9-84" style="edgeStyle=orthogonalEdgeStyle;rounded=0;orthogonalLoop=1;jettySize=auto;html=1;exitX=1;exitY=0.5;exitDx=0;exitDy=0;entryX=0;entryY=0.5;entryDx=0;entryDy=0;" edge="1" parent="1" source="OEuYa3dv73G8CfbDtzN9-49" target="OEuYa3dv73G8CfbDtzN9-71">
          <mxGeometry relative="1" as="geometry" />
        </mxCell>
        <mxCell id="OEuYa3dv73G8CfbDtzN9-49" value="Balance &amp;gt; 24" style="shape=hexagon;perimeter=hexagonPerimeter2;whiteSpace=wrap;html=1;fixedSize=1;fontFamily=Courier New;fontStyle=1;fontSize=14;" vertex="1" parent="1">
          <mxGeometry x="290" y="670" width="130" height="40" as="geometry" />
        </mxCell>
        <mxCell id="OEuYa3dv73G8CfbDtzN9-57" style="edgeStyle=orthogonalEdgeStyle;rounded=0;orthogonalLoop=1;jettySize=auto;html=1;entryX=0;entryY=0.5;entryDx=0;entryDy=0;" edge="1" parent="1" source="OEuYa3dv73G8CfbDtzN9-51" target="OEuYa3dv73G8CfbDtzN9-56">
          <mxGeometry relative="1" as="geometry" />
        </mxCell>
        <mxCell id="OEuYa3dv73G8CfbDtzN9-51" value="PTea ?" style="shape=hexagon;perimeter=hexagonPerimeter2;whiteSpace=wrap;html=1;fixedSize=1;fontFamily=Courier New;fontStyle=1;fontSize=14;" vertex="1" parent="1">
          <mxGeometry x="145" y="760" width="100" height="40" as="geometry" />
        </mxCell>
        <mxCell id="OEuYa3dv73G8CfbDtzN9-53" value="&lt;font style=&quot;font-size: 14px;&quot; face=&quot;Courier New&quot;&gt;&lt;b&gt;1&lt;/b&gt;&lt;/font&gt;" style="text;html=1;align=center;verticalAlign=middle;whiteSpace=wrap;rounded=0;" vertex="1" parent="1">
          <mxGeometry x="260" y="670" width="20" height="20" as="geometry" />
        </mxCell>
        <mxCell id="OEuYa3dv73G8CfbDtzN9-54" value="&lt;font style=&quot;font-size: 14px;&quot; face=&quot;Courier New&quot;&gt;&lt;b&gt;0&lt;/b&gt;&lt;/font&gt;" style="text;html=1;align=center;verticalAlign=middle;whiteSpace=wrap;rounded=0;" vertex="1" parent="1">
          <mxGeometry x="185" y="710" width="20" height="20" as="geometry" />
        </mxCell>
        <mxCell id="OEuYa3dv73G8CfbDtzN9-55" value="&lt;font style=&quot;font-size: 14px;&quot; face=&quot;Courier New&quot;&gt;&lt;b&gt;0&lt;/b&gt;&lt;/font&gt;" style="text;html=1;align=center;verticalAlign=middle;whiteSpace=wrap;rounded=0;" vertex="1" parent="1">
          <mxGeometry x="360" y="710" width="20" height="20" as="geometry" />
        </mxCell>
        <mxCell id="OEuYa3dv73G8CfbDtzN9-59" style="edgeStyle=orthogonalEdgeStyle;rounded=0;orthogonalLoop=1;jettySize=auto;html=1;entryX=0.5;entryY=0;entryDx=0;entryDy=0;" edge="1" parent="1" source="OEuYa3dv73G8CfbDtzN9-56" target="OEuYa3dv73G8CfbDtzN9-58">
          <mxGeometry relative="1" as="geometry">
            <Array as="points">
              <mxPoint x="355" y="830" />
              <mxPoint x="195" y="830" />
            </Array>
          </mxGeometry>
        </mxCell>
        <mxCell id="OEuYa3dv73G8CfbDtzN9-91" style="edgeStyle=orthogonalEdgeStyle;rounded=0;orthogonalLoop=1;jettySize=auto;html=1;entryX=0;entryY=0.5;entryDx=0;entryDy=0;" edge="1" parent="1" source="OEuYa3dv73G8CfbDtzN9-56" target="OEuYa3dv73G8CfbDtzN9-88">
          <mxGeometry relative="1" as="geometry" />
        </mxCell>
        <mxCell id="OEuYa3dv73G8CfbDtzN9-56" value="Balance &amp;gt; 19" style="shape=hexagon;perimeter=hexagonPerimeter2;whiteSpace=wrap;html=1;fixedSize=1;fontFamily=Courier New;fontStyle=1;fontSize=14;" vertex="1" parent="1">
          <mxGeometry x="290" y="760" width="130" height="40" as="geometry" />
        </mxCell>
        <mxCell id="OEuYa3dv73G8CfbDtzN9-63" style="edgeStyle=orthogonalEdgeStyle;rounded=0;orthogonalLoop=1;jettySize=auto;html=1;entryX=0;entryY=0.5;entryDx=0;entryDy=0;exitX=0;exitY=0.5;exitDx=0;exitDy=0;" edge="1" parent="1" source="OEuYa3dv73G8CfbDtzN9-58" target="OEuYa3dv73G8CfbDtzN9-1">
          <mxGeometry relative="1" as="geometry">
            <Array as="points">
              <mxPoint x="80" y="880" />
              <mxPoint x="80" y="250" />
            </Array>
          </mxGeometry>
        </mxCell>
        <mxCell id="OEuYa3dv73G8CfbDtzN9-131" style="edgeStyle=orthogonalEdgeStyle;rounded=0;orthogonalLoop=1;jettySize=auto;html=1;exitX=0.5;exitY=1;exitDx=0;exitDy=0;entryX=0.5;entryY=1;entryDx=0;entryDy=0;" edge="1" parent="1" source="OEuYa3dv73G8CfbDtzN9-58" target="OEuYa3dv73G8CfbDtzN9-110">
          <mxGeometry relative="1" as="geometry">
            <Array as="points">
              <mxPoint x="195" y="960" />
              <mxPoint x="970" y="960" />
            </Array>
          </mxGeometry>
        </mxCell>
        <mxCell id="OEuYa3dv73G8CfbDtzN9-58" value="PChange ?" style="shape=hexagon;perimeter=hexagonPerimeter2;whiteSpace=wrap;html=1;fixedSize=1;fontFamily=Courier New;fontStyle=1;fontSize=14;" vertex="1" parent="1">
          <mxGeometry x="145" y="860" width="100" height="40" as="geometry" />
        </mxCell>
        <mxCell id="OEuYa3dv73G8CfbDtzN9-60" value="&lt;font style=&quot;font-size: 14px;&quot; face=&quot;Courier New&quot;&gt;&lt;b&gt;0&lt;/b&gt;&lt;/font&gt;" style="text;html=1;align=center;verticalAlign=middle;whiteSpace=wrap;rounded=0;" vertex="1" parent="1">
          <mxGeometry x="182.5" y="805" width="25" height="10" as="geometry" />
        </mxCell>
        <mxCell id="OEuYa3dv73G8CfbDtzN9-61" value="&lt;font style=&quot;font-size: 14px;&quot; face=&quot;Courier New&quot;&gt;&lt;b&gt;0&lt;/b&gt;&lt;/font&gt;" style="text;html=1;align=center;verticalAlign=middle;whiteSpace=wrap;rounded=0;" vertex="1" parent="1">
          <mxGeometry x="360" y="800" width="20" height="20" as="geometry" />
        </mxCell>
        <mxCell id="OEuYa3dv73G8CfbDtzN9-144" style="edgeStyle=orthogonalEdgeStyle;rounded=0;orthogonalLoop=1;jettySize=auto;html=1;exitX=1;exitY=0.5;exitDx=0;exitDy=0;" edge="1" parent="1" source="OEuYa3dv73G8CfbDtzN9-66">
          <mxGeometry relative="1" as="geometry">
            <mxPoint x="719.9999999999998" y="420.2068965517242" as="targetPoint" />
          </mxGeometry>
        </mxCell>
        <mxCell id="OEuYa3dv73G8CfbDtzN9-66" value="&lt;font face=&quot;Courier New&quot;&gt;&lt;span style=&quot;font-size: 14px;&quot;&gt;&lt;b&gt;Balance &amp;lt;- Balance+5&lt;/b&gt;&lt;/span&gt;&lt;/font&gt;" style="rounded=1;whiteSpace=wrap;html=1;" vertex="1" parent="1">
          <mxGeometry x="480" y="400" width="200" height="40" as="geometry" />
        </mxCell>
        <mxCell id="OEuYa3dv73G8CfbDtzN9-68" value="&lt;font style=&quot;font-size: 14px;&quot; face=&quot;Courier New&quot;&gt;&lt;b&gt;1&lt;/b&gt;&lt;/font&gt;" style="text;html=1;align=center;verticalAlign=middle;whiteSpace=wrap;rounded=0;" vertex="1" parent="1">
          <mxGeometry x="440" y="400" width="20" height="20" as="geometry" />
        </mxCell>
        <mxCell id="OEuYa3dv73G8CfbDtzN9-143" style="edgeStyle=orthogonalEdgeStyle;rounded=0;orthogonalLoop=1;jettySize=auto;html=1;exitX=1;exitY=0.5;exitDx=0;exitDy=0;" edge="1" parent="1" source="OEuYa3dv73G8CfbDtzN9-69">
          <mxGeometry relative="1" as="geometry">
            <mxPoint x="719.9999999999998" y="509.8620689655173" as="targetPoint" />
          </mxGeometry>
        </mxCell>
        <mxCell id="OEuYa3dv73G8CfbDtzN9-69" value="&lt;font face=&quot;Courier New&quot;&gt;&lt;span style=&quot;font-size: 14px;&quot;&gt;&lt;b&gt;Balance &amp;lt;- Balance+10&lt;/b&gt;&lt;/span&gt;&lt;/font&gt;" style="rounded=1;whiteSpace=wrap;html=1;" vertex="1" parent="1">
          <mxGeometry x="480" y="490" width="200" height="40" as="geometry" />
        </mxCell>
        <mxCell id="OEuYa3dv73G8CfbDtzN9-107" style="edgeStyle=orthogonalEdgeStyle;rounded=0;orthogonalLoop=1;jettySize=auto;html=1;exitX=1;exitY=0.5;exitDx=0;exitDy=0;" edge="1" parent="1" source="OEuYa3dv73G8CfbDtzN9-70">
          <mxGeometry relative="1" as="geometry">
            <mxPoint x="720" y="250" as="targetPoint" />
          </mxGeometry>
        </mxCell>
        <mxCell id="OEuYa3dv73G8CfbDtzN9-70" value="&lt;font face=&quot;Courier New&quot;&gt;&lt;span style=&quot;font-size: 14px;&quot;&gt;&lt;b&gt;Balance &amp;lt;- Balance+20&lt;/b&gt;&lt;/span&gt;&lt;/font&gt;" style="rounded=1;whiteSpace=wrap;html=1;" vertex="1" parent="1">
          <mxGeometry x="480" y="580" width="200" height="40" as="geometry" />
        </mxCell>
        <mxCell id="OEuYa3dv73G8CfbDtzN9-93" style="edgeStyle=orthogonalEdgeStyle;rounded=0;orthogonalLoop=1;jettySize=auto;html=1;entryX=0;entryY=0.5;entryDx=0;entryDy=0;" edge="1" parent="1" source="OEuYa3dv73G8CfbDtzN9-71" target="OEuYa3dv73G8CfbDtzN9-92">
          <mxGeometry relative="1" as="geometry" />
        </mxCell>
        <mxCell id="OEuYa3dv73G8CfbDtzN9-71" value="&lt;font face=&quot;Courier New&quot;&gt;&lt;span style=&quot;font-size: 14px;&quot;&gt;&lt;b&gt;Balance &amp;lt;- Balance-25&lt;/b&gt;&lt;/span&gt;&lt;/font&gt;&lt;div&gt;&lt;font face=&quot;Courier New&quot;&gt;&lt;span style=&quot;font-size: 14px;&quot;&gt;&lt;b&gt;CoffeeOut &amp;lt;- 1&lt;/b&gt;&lt;/span&gt;&lt;/font&gt;&lt;/div&gt;" style="rounded=1;whiteSpace=wrap;html=1;" vertex="1" parent="1">
          <mxGeometry x="480" y="660" width="200" height="60" as="geometry" />
        </mxCell>
        <mxCell id="OEuYa3dv73G8CfbDtzN9-72" value="&lt;font style=&quot;font-size: 14px;&quot; face=&quot;Courier New&quot;&gt;&lt;b&gt;Add5&lt;/b&gt;&lt;/font&gt;" style="text;html=1;align=center;verticalAlign=middle;whiteSpace=wrap;rounded=0;" vertex="1" parent="1">
          <mxGeometry x="480" y="380" width="40" height="20" as="geometry" />
        </mxCell>
        <mxCell id="OEuYa3dv73G8CfbDtzN9-74" value="&lt;font style=&quot;font-size: 14px;&quot; face=&quot;Courier New&quot;&gt;&lt;b&gt;0010&lt;/b&gt;&lt;/font&gt;" style="text;html=1;align=center;verticalAlign=middle;whiteSpace=wrap;rounded=0;" vertex="1" parent="1">
          <mxGeometry x="630" y="380" width="50" height="20" as="geometry" />
        </mxCell>
        <mxCell id="OEuYa3dv73G8CfbDtzN9-76" value="&lt;font style=&quot;font-size: 14px;&quot; face=&quot;Courier New&quot;&gt;&lt;b&gt;Add10&lt;/b&gt;&lt;/font&gt;" style="text;html=1;align=center;verticalAlign=middle;whiteSpace=wrap;rounded=0;" vertex="1" parent="1">
          <mxGeometry x="480" y="470" width="50" height="20" as="geometry" />
        </mxCell>
        <mxCell id="OEuYa3dv73G8CfbDtzN9-77" value="&lt;font style=&quot;font-size: 14px;&quot; face=&quot;Courier New&quot;&gt;&lt;b&gt;0011&lt;/b&gt;&lt;/font&gt;" style="text;html=1;align=center;verticalAlign=middle;whiteSpace=wrap;rounded=0;" vertex="1" parent="1">
          <mxGeometry x="630" y="470" width="50" height="20" as="geometry" />
        </mxCell>
        <mxCell id="OEuYa3dv73G8CfbDtzN9-78" value="&lt;font style=&quot;font-size: 14px;&quot; face=&quot;Courier New&quot;&gt;&lt;b&gt;Add20&lt;/b&gt;&lt;/font&gt;" style="text;html=1;align=center;verticalAlign=middle;whiteSpace=wrap;rounded=0;" vertex="1" parent="1">
          <mxGeometry x="480" y="560" width="50" height="20" as="geometry" />
        </mxCell>
        <mxCell id="OEuYa3dv73G8CfbDtzN9-79" value="&lt;font style=&quot;font-size: 14px;&quot; face=&quot;Courier New&quot;&gt;&lt;b&gt;0100&lt;/b&gt;&lt;/font&gt;" style="text;html=1;align=center;verticalAlign=middle;whiteSpace=wrap;rounded=0;" vertex="1" parent="1">
          <mxGeometry x="630" y="560" width="50" height="20" as="geometry" />
        </mxCell>
        <mxCell id="OEuYa3dv73G8CfbDtzN9-80" value="&lt;font style=&quot;font-size: 14px;&quot; face=&quot;Courier New&quot;&gt;&lt;b&gt;BuyCoffee&lt;/b&gt;&lt;/font&gt;" style="text;html=1;align=center;verticalAlign=middle;whiteSpace=wrap;rounded=0;" vertex="1" parent="1">
          <mxGeometry x="480" y="640" width="80" height="20" as="geometry" />
        </mxCell>
        <mxCell id="OEuYa3dv73G8CfbDtzN9-81" value="&lt;font style=&quot;font-size: 14px;&quot; face=&quot;Courier New&quot;&gt;&lt;b&gt;0101&lt;/b&gt;&lt;/font&gt;" style="text;html=1;align=center;verticalAlign=middle;whiteSpace=wrap;rounded=0;" vertex="1" parent="1">
          <mxGeometry x="630" y="640" width="50" height="20" as="geometry" />
        </mxCell>
        <mxCell id="OEuYa3dv73G8CfbDtzN9-85" value="&lt;font style=&quot;font-size: 14px;&quot; face=&quot;Courier New&quot;&gt;&lt;b&gt;1&lt;/b&gt;&lt;/font&gt;" style="text;html=1;align=center;verticalAlign=middle;whiteSpace=wrap;rounded=0;" vertex="1" parent="1">
          <mxGeometry x="440" y="490" width="20" height="20" as="geometry" />
        </mxCell>
        <mxCell id="OEuYa3dv73G8CfbDtzN9-86" value="&lt;font style=&quot;font-size: 14px;&quot; face=&quot;Courier New&quot;&gt;&lt;b&gt;1&lt;/b&gt;&lt;/font&gt;" style="text;html=1;align=center;verticalAlign=middle;whiteSpace=wrap;rounded=0;" vertex="1" parent="1">
          <mxGeometry x="440" y="580" width="20" height="20" as="geometry" />
        </mxCell>
        <mxCell id="OEuYa3dv73G8CfbDtzN9-87" value="&lt;font style=&quot;font-size: 14px;&quot; face=&quot;Courier New&quot;&gt;&lt;b&gt;1&lt;/b&gt;&lt;/font&gt;" style="text;html=1;align=center;verticalAlign=middle;whiteSpace=wrap;rounded=0;" vertex="1" parent="1">
          <mxGeometry x="440" y="670" width="20" height="20" as="geometry" />
        </mxCell>
        <mxCell id="OEuYa3dv73G8CfbDtzN9-88" value="&lt;font face=&quot;Courier New&quot;&gt;&lt;span style=&quot;font-size: 14px;&quot;&gt;&lt;b&gt;Balance &amp;lt;- Balance-20&lt;/b&gt;&lt;/span&gt;&lt;/font&gt;&lt;div&gt;&lt;font face=&quot;Courier New&quot;&gt;&lt;span style=&quot;font-size: 14px;&quot;&gt;&lt;b&gt;TeaOut &amp;lt;- 1&lt;/b&gt;&lt;/span&gt;&lt;/font&gt;&lt;/div&gt;" style="rounded=1;whiteSpace=wrap;html=1;" vertex="1" parent="1">
          <mxGeometry x="480" y="750" width="200" height="60" as="geometry" />
        </mxCell>
        <mxCell id="OEuYa3dv73G8CfbDtzN9-89" value="&lt;font style=&quot;font-size: 14px;&quot; face=&quot;Courier New&quot;&gt;&lt;b&gt;BuyTea&lt;/b&gt;&lt;/font&gt;" style="text;html=1;align=center;verticalAlign=middle;whiteSpace=wrap;rounded=0;" vertex="1" parent="1">
          <mxGeometry x="480" y="730" width="60" height="20" as="geometry" />
        </mxCell>
        <mxCell id="OEuYa3dv73G8CfbDtzN9-90" value="&lt;font style=&quot;font-size: 14px;&quot; face=&quot;Courier New&quot;&gt;&lt;b&gt;0110&lt;/b&gt;&lt;/font&gt;" style="text;html=1;align=center;verticalAlign=middle;whiteSpace=wrap;rounded=0;" vertex="1" parent="1">
          <mxGeometry x="630" y="730" width="50" height="20" as="geometry" />
        </mxCell>
        <mxCell id="OEuYa3dv73G8CfbDtzN9-99" style="edgeStyle=orthogonalEdgeStyle;rounded=0;orthogonalLoop=1;jettySize=auto;html=1;entryX=0;entryY=0.5;entryDx=0;entryDy=0;" edge="1" parent="1" source="OEuYa3dv73G8CfbDtzN9-92" target="OEuYa3dv73G8CfbDtzN9-96">
          <mxGeometry relative="1" as="geometry" />
        </mxCell>
        <mxCell id="OEuYa3dv73G8CfbDtzN9-92" value="" style="rounded=1;whiteSpace=wrap;html=1;" vertex="1" parent="1">
          <mxGeometry x="720" y="660" width="120" height="60" as="geometry" />
        </mxCell>
        <mxCell id="OEuYa3dv73G8CfbDtzN9-94" value="&lt;font style=&quot;font-size: 14px;&quot; face=&quot;Courier New&quot;&gt;&lt;b&gt;Idle&lt;/b&gt;&lt;/font&gt;" style="text;html=1;align=center;verticalAlign=middle;whiteSpace=wrap;rounded=0;" vertex="1" parent="1">
          <mxGeometry x="720" y="640" width="40" height="20" as="geometry" />
        </mxCell>
        <mxCell id="OEuYa3dv73G8CfbDtzN9-95" value="&lt;font style=&quot;font-size: 14px;&quot; face=&quot;Courier New&quot;&gt;&lt;b&gt;0111&lt;/b&gt;&lt;/font&gt;" style="text;html=1;align=center;verticalAlign=middle;whiteSpace=wrap;rounded=0;" vertex="1" parent="1">
          <mxGeometry x="800" y="640" width="40" height="20" as="geometry" />
        </mxCell>
        <mxCell id="OEuYa3dv73G8CfbDtzN9-100" style="edgeStyle=orthogonalEdgeStyle;rounded=0;orthogonalLoop=1;jettySize=auto;html=1;entryX=0.5;entryY=0;entryDx=0;entryDy=0;" edge="1" parent="1" source="OEuYa3dv73G8CfbDtzN9-96" target="OEuYa3dv73G8CfbDtzN9-97">
          <mxGeometry relative="1" as="geometry" />
        </mxCell>
        <mxCell id="OEuYa3dv73G8CfbDtzN9-106" style="edgeStyle=orthogonalEdgeStyle;rounded=0;orthogonalLoop=1;jettySize=auto;html=1;entryX=1;entryY=0.5;entryDx=0;entryDy=0;" edge="1" parent="1" source="OEuYa3dv73G8CfbDtzN9-96" target="5jhMgcD0juR2SkIwLDy6-1">
          <mxGeometry relative="1" as="geometry">
            <mxPoint x="330" y="130" as="targetPoint" />
            <Array as="points">
              <mxPoint x="890" y="120" />
            </Array>
          </mxGeometry>
        </mxCell>
        <mxCell id="OEuYa3dv73G8CfbDtzN9-96" value="Reset ?" style="shape=hexagon;perimeter=hexagonPerimeter2;whiteSpace=wrap;html=1;fixedSize=1;fontFamily=Courier New;fontStyle=1;fontSize=14;" vertex="1" parent="1">
          <mxGeometry x="840" y="400" width="100" height="40" as="geometry" />
        </mxCell>
        <mxCell id="OEuYa3dv73G8CfbDtzN9-101" style="edgeStyle=orthogonalEdgeStyle;rounded=0;orthogonalLoop=1;jettySize=auto;html=1;entryX=0.5;entryY=0;entryDx=0;entryDy=0;" edge="1" parent="1" source="OEuYa3dv73G8CfbDtzN9-97" target="OEuYa3dv73G8CfbDtzN9-98">
          <mxGeometry relative="1" as="geometry" />
        </mxCell>
        <mxCell id="OEuYa3dv73G8CfbDtzN9-97" value="Pnext ?" style="shape=hexagon;perimeter=hexagonPerimeter2;whiteSpace=wrap;html=1;fixedSize=1;fontFamily=Courier New;fontStyle=1;fontSize=14;" vertex="1" parent="1">
          <mxGeometry x="840" y="490" width="100" height="40" as="geometry" />
        </mxCell>
        <mxCell id="OEuYa3dv73G8CfbDtzN9-104" style="edgeStyle=orthogonalEdgeStyle;rounded=0;orthogonalLoop=1;jettySize=auto;html=1;exitX=0.5;exitY=1;exitDx=0;exitDy=0;entryX=1;entryY=0.5;entryDx=0;entryDy=0;" edge="1" parent="1" source="OEuYa3dv73G8CfbDtzN9-98" target="OEuYa3dv73G8CfbDtzN9-92">
          <mxGeometry relative="1" as="geometry" />
        </mxCell>
        <mxCell id="OEuYa3dv73G8CfbDtzN9-109" style="edgeStyle=orthogonalEdgeStyle;rounded=0;orthogonalLoop=1;jettySize=auto;html=1;exitX=1;exitY=0.5;exitDx=0;exitDy=0;entryX=0;entryY=0.5;entryDx=0;entryDy=0;" edge="1" parent="1" source="OEuYa3dv73G8CfbDtzN9-98" target="OEuYa3dv73G8CfbDtzN9-108">
          <mxGeometry relative="1" as="geometry" />
        </mxCell>
        <mxCell id="OEuYa3dv73G8CfbDtzN9-98" value="Pchange ?" style="shape=hexagon;perimeter=hexagonPerimeter2;whiteSpace=wrap;html=1;fixedSize=1;fontFamily=Courier New;fontStyle=1;fontSize=14;" vertex="1" parent="1">
          <mxGeometry x="840" y="580" width="100" height="40" as="geometry" />
        </mxCell>
        <mxCell id="OEuYa3dv73G8CfbDtzN9-102" value="&lt;font style=&quot;font-size: 14px;&quot; face=&quot;Courier New&quot;&gt;&lt;b&gt;0&lt;/b&gt;&lt;/font&gt;" style="text;html=1;align=center;verticalAlign=middle;whiteSpace=wrap;rounded=0;" vertex="1" parent="1">
          <mxGeometry x="890" y="450" width="20" height="20" as="geometry" />
        </mxCell>
        <mxCell id="OEuYa3dv73G8CfbDtzN9-103" value="&lt;font style=&quot;font-size: 14px;&quot; face=&quot;Courier New&quot;&gt;&lt;b&gt;0&lt;/b&gt;&lt;/font&gt;" style="text;html=1;align=center;verticalAlign=middle;whiteSpace=wrap;rounded=0;" vertex="1" parent="1">
          <mxGeometry x="890" y="540" width="20" height="20" as="geometry" />
        </mxCell>
        <mxCell id="OEuYa3dv73G8CfbDtzN9-105" value="&lt;font style=&quot;font-size: 14px;&quot; face=&quot;Courier New&quot;&gt;&lt;b&gt;0&lt;/b&gt;&lt;/font&gt;" style="text;html=1;align=center;verticalAlign=middle;whiteSpace=wrap;rounded=0;" vertex="1" parent="1">
          <mxGeometry x="890" y="640" width="20" height="20" as="geometry" />
        </mxCell>
        <mxCell id="OEuYa3dv73G8CfbDtzN9-116" style="edgeStyle=orthogonalEdgeStyle;rounded=0;orthogonalLoop=1;jettySize=auto;html=1;entryX=0.5;entryY=0;entryDx=0;entryDy=0;" edge="1" parent="1" source="OEuYa3dv73G8CfbDtzN9-108" target="OEuYa3dv73G8CfbDtzN9-113">
          <mxGeometry relative="1" as="geometry" />
        </mxCell>
        <mxCell id="OEuYa3dv73G8CfbDtzN9-108" value="&lt;font face=&quot;Courier New&quot;&gt;&lt;span style=&quot;font-size: 14px;&quot;&gt;&lt;b&gt;Change5 &amp;lt;- 0&lt;/b&gt;&lt;/span&gt;&lt;/font&gt;&lt;div&gt;&lt;font face=&quot;Courier New&quot;&gt;&lt;span style=&quot;font-size: 14px;&quot;&gt;&lt;b&gt;Change10 &amp;lt;- 0&lt;/b&gt;&lt;/span&gt;&lt;/font&gt;&lt;/div&gt;&lt;div&gt;&lt;font face=&quot;Courier New&quot;&gt;&lt;span style=&quot;font-size: 14px;&quot;&gt;&lt;b&gt;Change20 &amp;lt;- 0&lt;/b&gt;&lt;/span&gt;&lt;/font&gt;&lt;/div&gt;" style="rounded=1;whiteSpace=wrap;html=1;" vertex="1" parent="1">
          <mxGeometry x="1000" y="570" width="150" height="60" as="geometry" />
        </mxCell>
        <mxCell id="OEuYa3dv73G8CfbDtzN9-110" value="&lt;font style=&quot;font-size: 14px;&quot; face=&quot;Courier New&quot;&gt;&lt;b&gt;1&lt;/b&gt;&lt;/font&gt;" style="text;html=1;align=center;verticalAlign=middle;whiteSpace=wrap;rounded=0;" vertex="1" parent="1">
          <mxGeometry x="960" y="580" width="20" height="20" as="geometry" />
        </mxCell>
        <mxCell id="OEuYa3dv73G8CfbDtzN9-111" value="&lt;font style=&quot;font-size: 14px;&quot; face=&quot;Courier New&quot;&gt;&lt;b&gt;Change&lt;/b&gt;&lt;/font&gt;" style="text;html=1;align=center;verticalAlign=middle;whiteSpace=wrap;rounded=0;" vertex="1" parent="1">
          <mxGeometry x="1000" y="550" width="60" height="20" as="geometry" />
        </mxCell>
        <mxCell id="OEuYa3dv73G8CfbDtzN9-112" value="&lt;font style=&quot;font-size: 14px;&quot; face=&quot;Courier New&quot;&gt;&lt;b&gt;1111&lt;/b&gt;&lt;/font&gt;" style="text;html=1;align=center;verticalAlign=middle;whiteSpace=wrap;rounded=0;" vertex="1" parent="1">
          <mxGeometry x="1100" y="550" width="50" height="20" as="geometry" />
        </mxCell>
        <mxCell id="OEuYa3dv73G8CfbDtzN9-120" style="edgeStyle=orthogonalEdgeStyle;rounded=0;orthogonalLoop=1;jettySize=auto;html=1;entryX=0.5;entryY=0;entryDx=0;entryDy=0;" edge="1" parent="1" source="OEuYa3dv73G8CfbDtzN9-113" target="OEuYa3dv73G8CfbDtzN9-117">
          <mxGeometry relative="1" as="geometry" />
        </mxCell>
        <mxCell id="OEuYa3dv73G8CfbDtzN9-113" value="" style="rounded=1;whiteSpace=wrap;html=1;" vertex="1" parent="1">
          <mxGeometry x="1000" y="700" width="150" height="60" as="geometry" />
        </mxCell>
        <mxCell id="OEuYa3dv73G8CfbDtzN9-114" value="&lt;font style=&quot;font-size: 14px;&quot; face=&quot;Courier New&quot;&gt;&lt;b&gt;Idle&lt;/b&gt;&lt;/font&gt;" style="text;html=1;align=center;verticalAlign=middle;whiteSpace=wrap;rounded=0;" vertex="1" parent="1">
          <mxGeometry x="1000" y="680" width="40" height="20" as="geometry" />
        </mxCell>
        <mxCell id="OEuYa3dv73G8CfbDtzN9-115" value="&lt;font style=&quot;font-size: 14px;&quot; face=&quot;Courier New&quot;&gt;&lt;b&gt;1101&lt;/b&gt;&lt;/font&gt;" style="text;html=1;align=center;verticalAlign=middle;whiteSpace=wrap;rounded=0;" vertex="1" parent="1">
          <mxGeometry x="1110" y="680" width="40" height="20" as="geometry" />
        </mxCell>
        <mxCell id="OEuYa3dv73G8CfbDtzN9-121" style="edgeStyle=orthogonalEdgeStyle;rounded=0;orthogonalLoop=1;jettySize=auto;html=1;entryX=0.5;entryY=0;entryDx=0;entryDy=0;" edge="1" parent="1" source="OEuYa3dv73G8CfbDtzN9-117" target="OEuYa3dv73G8CfbDtzN9-118">
          <mxGeometry relative="1" as="geometry" />
        </mxCell>
        <mxCell id="OEuYa3dv73G8CfbDtzN9-126" style="edgeStyle=orthogonalEdgeStyle;rounded=0;orthogonalLoop=1;jettySize=auto;html=1;exitX=1;exitY=0.5;exitDx=0;exitDy=0;entryX=0;entryY=0.5;entryDx=0;entryDy=0;" edge="1" parent="1" source="OEuYa3dv73G8CfbDtzN9-117" target="OEuYa3dv73G8CfbDtzN9-123">
          <mxGeometry relative="1" as="geometry" />
        </mxCell>
        <mxCell id="OEuYa3dv73G8CfbDtzN9-117" value="Balance &amp;gt; 19" style="shape=hexagon;perimeter=hexagonPerimeter2;whiteSpace=wrap;html=1;fixedSize=1;fontFamily=Courier New;fontStyle=1;fontSize=14;" vertex="1" parent="1">
          <mxGeometry x="1010" y="800" width="130" height="40" as="geometry" />
        </mxCell>
        <mxCell id="OEuYa3dv73G8CfbDtzN9-122" style="edgeStyle=orthogonalEdgeStyle;rounded=0;orthogonalLoop=1;jettySize=auto;html=1;entryX=0.5;entryY=0;entryDx=0;entryDy=0;" edge="1" parent="1" source="OEuYa3dv73G8CfbDtzN9-118" target="OEuYa3dv73G8CfbDtzN9-119">
          <mxGeometry relative="1" as="geometry" />
        </mxCell>
        <mxCell id="OEuYa3dv73G8CfbDtzN9-127" style="edgeStyle=orthogonalEdgeStyle;rounded=0;orthogonalLoop=1;jettySize=auto;html=1;exitX=1;exitY=0.5;exitDx=0;exitDy=0;entryX=0;entryY=0.5;entryDx=0;entryDy=0;" edge="1" parent="1" source="OEuYa3dv73G8CfbDtzN9-118" target="OEuYa3dv73G8CfbDtzN9-125">
          <mxGeometry relative="1" as="geometry" />
        </mxCell>
        <mxCell id="OEuYa3dv73G8CfbDtzN9-118" value="Balance &amp;gt; 9" style="shape=hexagon;perimeter=hexagonPerimeter2;whiteSpace=wrap;html=1;fixedSize=1;fontFamily=Courier New;fontStyle=1;fontSize=14;" vertex="1" parent="1">
          <mxGeometry x="1010" y="890" width="130" height="40" as="geometry" />
        </mxCell>
        <mxCell id="OEuYa3dv73G8CfbDtzN9-129" style="edgeStyle=orthogonalEdgeStyle;rounded=0;orthogonalLoop=1;jettySize=auto;html=1;exitX=1;exitY=0.5;exitDx=0;exitDy=0;" edge="1" parent="1" source="OEuYa3dv73G8CfbDtzN9-119" target="OEuYa3dv73G8CfbDtzN9-128">
          <mxGeometry relative="1" as="geometry" />
        </mxCell>
        <mxCell id="OEuYa3dv73G8CfbDtzN9-138" style="edgeStyle=orthogonalEdgeStyle;rounded=0;orthogonalLoop=1;jettySize=auto;html=1;entryX=1;entryY=0.5;entryDx=0;entryDy=0;" edge="1" parent="1" source="OEuYa3dv73G8CfbDtzN9-119" target="OEuYa3dv73G8CfbDtzN9-1">
          <mxGeometry relative="1" as="geometry">
            <mxPoint x="890" y="120" as="targetPoint" />
            <Array as="points">
              <mxPoint x="1075" y="1080" />
              <mxPoint x="1480" y="1080" />
              <mxPoint x="1480" y="250" />
            </Array>
          </mxGeometry>
        </mxCell>
        <mxCell id="OEuYa3dv73G8CfbDtzN9-119" value="Balance &amp;gt; 4" style="shape=hexagon;perimeter=hexagonPerimeter2;whiteSpace=wrap;html=1;fixedSize=1;fontFamily=Courier New;fontStyle=1;fontSize=14;" vertex="1" parent="1">
          <mxGeometry x="1010" y="980" width="130" height="40" as="geometry" />
        </mxCell>
        <mxCell id="OEuYa3dv73G8CfbDtzN9-140" style="edgeStyle=orthogonalEdgeStyle;rounded=0;orthogonalLoop=1;jettySize=auto;html=1;exitX=1;exitY=0.5;exitDx=0;exitDy=0;entryX=1;entryY=0.5;entryDx=0;entryDy=0;" edge="1" parent="1" source="OEuYa3dv73G8CfbDtzN9-123" target="OEuYa3dv73G8CfbDtzN9-113">
          <mxGeometry relative="1" as="geometry">
            <Array as="points">
              <mxPoint x="1440" y="820" />
              <mxPoint x="1440" y="730" />
            </Array>
          </mxGeometry>
        </mxCell>
        <mxCell id="OEuYa3dv73G8CfbDtzN9-123" value="&lt;font face=&quot;Courier New&quot;&gt;&lt;span style=&quot;font-size: 14px;&quot;&gt;&lt;b&gt;Balance &amp;lt;- Balance-20&lt;/b&gt;&lt;/span&gt;&lt;/font&gt;&lt;div&gt;&lt;font face=&quot;Courier New&quot;&gt;&lt;span style=&quot;font-size: 14px;&quot;&gt;&lt;b&gt;Change20 &amp;lt;- Change20+1&lt;/b&gt;&lt;/span&gt;&lt;/font&gt;&lt;/div&gt;" style="rounded=1;whiteSpace=wrap;html=1;" vertex="1" parent="1">
          <mxGeometry x="1200" y="790" width="200" height="60" as="geometry" />
        </mxCell>
        <mxCell id="OEuYa3dv73G8CfbDtzN9-141" style="edgeStyle=orthogonalEdgeStyle;rounded=0;orthogonalLoop=1;jettySize=auto;html=1;exitX=1;exitY=0.5;exitDx=0;exitDy=0;" edge="1" parent="1" source="OEuYa3dv73G8CfbDtzN9-125">
          <mxGeometry relative="1" as="geometry">
            <mxPoint x="1440" y="820" as="targetPoint" />
          </mxGeometry>
        </mxCell>
        <mxCell id="OEuYa3dv73G8CfbDtzN9-125" value="&lt;font face=&quot;Courier New&quot;&gt;&lt;span style=&quot;font-size: 14px;&quot;&gt;&lt;b&gt;Balance &amp;lt;- Balance-10&lt;/b&gt;&lt;/span&gt;&lt;/font&gt;&lt;div&gt;&lt;font face=&quot;Courier New&quot;&gt;&lt;span style=&quot;font-size: 14px;&quot;&gt;&lt;b&gt;Change10 &amp;lt;- Change10+1&lt;/b&gt;&lt;/span&gt;&lt;/font&gt;&lt;/div&gt;" style="rounded=1;whiteSpace=wrap;html=1;" vertex="1" parent="1">
          <mxGeometry x="1200" y="880" width="200" height="60" as="geometry" />
        </mxCell>
        <mxCell id="OEuYa3dv73G8CfbDtzN9-142" style="edgeStyle=orthogonalEdgeStyle;rounded=0;orthogonalLoop=1;jettySize=auto;html=1;exitX=1;exitY=0.5;exitDx=0;exitDy=0;" edge="1" parent="1" source="OEuYa3dv73G8CfbDtzN9-128">
          <mxGeometry relative="1" as="geometry">
            <mxPoint x="1440" y="910" as="targetPoint" />
          </mxGeometry>
        </mxCell>
        <mxCell id="OEuYa3dv73G8CfbDtzN9-128" value="&lt;font face=&quot;Courier New&quot;&gt;&lt;span style=&quot;font-size: 14px;&quot;&gt;&lt;b&gt;Balance &amp;lt;- Balance-5&lt;/b&gt;&lt;/span&gt;&lt;/font&gt;&lt;div&gt;&lt;font face=&quot;Courier New&quot;&gt;&lt;span style=&quot;font-size: 14px;&quot;&gt;&lt;b&gt;Change5 &amp;lt;- Change5+1&lt;/b&gt;&lt;/span&gt;&lt;/font&gt;&lt;/div&gt;" style="rounded=1;whiteSpace=wrap;html=1;" vertex="1" parent="1">
          <mxGeometry x="1200" y="970" width="200" height="60" as="geometry" />
        </mxCell>
        <mxCell id="OEuYa3dv73G8CfbDtzN9-132" value="&lt;font style=&quot;font-size: 14px;&quot; face=&quot;Courier New&quot;&gt;&lt;b&gt;1&lt;/b&gt;&lt;/font&gt;" style="text;html=1;align=center;verticalAlign=middle;whiteSpace=wrap;rounded=0;" vertex="1" parent="1">
          <mxGeometry x="200" y="920" width="20" height="20" as="geometry" />
        </mxCell>
        <mxCell id="OEuYa3dv73G8CfbDtzN9-133" value="&lt;font style=&quot;font-size: 14px;&quot; face=&quot;Courier New&quot;&gt;&lt;b&gt;0&lt;/b&gt;&lt;/font&gt;" style="text;html=1;align=center;verticalAlign=middle;whiteSpace=wrap;rounded=0;" vertex="1" parent="1">
          <mxGeometry x="1080" y="850" width="20" height="20" as="geometry" />
        </mxCell>
        <mxCell id="OEuYa3dv73G8CfbDtzN9-134" value="&lt;font style=&quot;font-size: 14px;&quot; face=&quot;Courier New&quot;&gt;&lt;b&gt;0&lt;/b&gt;&lt;/font&gt;" style="text;html=1;align=center;verticalAlign=middle;whiteSpace=wrap;rounded=0;" vertex="1" parent="1">
          <mxGeometry x="1080" y="940" width="20" height="20" as="geometry" />
        </mxCell>
        <mxCell id="OEuYa3dv73G8CfbDtzN9-135" value="&lt;font style=&quot;font-size: 14px;&quot; face=&quot;Courier New&quot;&gt;&lt;b&gt;1&lt;/b&gt;&lt;/font&gt;" style="text;html=1;align=center;verticalAlign=middle;whiteSpace=wrap;rounded=0;" vertex="1" parent="1">
          <mxGeometry x="1160" y="800" width="20" height="20" as="geometry" />
        </mxCell>
        <mxCell id="OEuYa3dv73G8CfbDtzN9-136" value="&lt;font style=&quot;font-size: 14px;&quot; face=&quot;Courier New&quot;&gt;&lt;b&gt;1&lt;/b&gt;&lt;/font&gt;" style="text;html=1;align=center;verticalAlign=middle;whiteSpace=wrap;rounded=0;" vertex="1" parent="1">
          <mxGeometry x="1160" y="890" width="20" height="20" as="geometry" />
        </mxCell>
        <mxCell id="OEuYa3dv73G8CfbDtzN9-137" value="&lt;font style=&quot;font-size: 14px;&quot; face=&quot;Courier New&quot;&gt;&lt;b&gt;1&lt;/b&gt;&lt;/font&gt;" style="text;html=1;align=center;verticalAlign=middle;whiteSpace=wrap;rounded=0;" vertex="1" parent="1">
          <mxGeometry x="1160" y="980" width="20" height="20" as="geometry" />
        </mxCell>
        <mxCell id="OEuYa3dv73G8CfbDtzN9-139" value="&lt;font style=&quot;font-size: 14px;&quot; face=&quot;Courier New&quot;&gt;&lt;b&gt;0&lt;/b&gt;&lt;/font&gt;" style="text;html=1;align=center;verticalAlign=middle;whiteSpace=wrap;rounded=0;" vertex="1" parent="1">
          <mxGeometry x="1080" y="1030" width="20" height="20" as="geometry" />
        </mxCell>
        <mxCell id="OEuYa3dv73G8CfbDtzN9-145" value="&lt;font style=&quot;font-size: 14px;&quot; face=&quot;Courier New&quot;&gt;&lt;b&gt;1&lt;/b&gt;&lt;/font&gt;" style="text;html=1;align=center;verticalAlign=middle;whiteSpace=wrap;rounded=0;" vertex="1" parent="1">
          <mxGeometry x="440" y="760" width="20" height="20" as="geometry" />
        </mxCell>
      </root>
    </mxGraphModel>
  </diagram>
</mxfile>
